# xmcd
#
# Track frame offsets: 
#        150
#        16461
#        34954
#        52140
#        72800
#        86771
#        103044
#        116799
#        132228
#        149021
#        166308
#
# Disc length: 2349 seconds
#
# Revision: 0
# Processed by: cddbd v1.5.2PL0 Copyright (c) Steve Scherf et al.
# Submitted via: ExactAudioCopy v0.99pb5
#
DISCID=a4092b0b
DTITLE=Various Artist - Be Yourself - A Tribute To Graham Nash's Songs For Bi
DTITLE=ginners
DYEAR=2010
DGENRE=Alternative
TTITLE0=Port O Brien - Papercuts - Military Madness
TTITLE1=Brenden Benson - Better Days
TTITLE2=Nile Nash - Wounded Bird
TTITLE3=Vetiver - I Used To Be A King
TTITLE4=Robin Pecknold - Be Yourself
TTITLE5=Bonnie 'Prince' Billy - Simple Man (Hombre Sencillo)
TTITLE6=Moore Brother - Man In The Mirror
TTITLE7=Alela Diene - There's Only One
TTITLE8=Mariee Siux (w Greg Weeks) - Sleep Song
TTITLE9=Sleepy Sun - Chicago
TTITLE10=Nile Nash - We Can Change The World (Reprise)
EXTD=
EXTT0=
EXTT1=
EXTT2=
EXTT3=
EXTT4=
EXTT5=
EXTT6=
EXTT7=
EXTT8=
EXTT9=
EXTT10=
PLAYORDER=
